<?xml version="1.0" standalone="no"?><svg xmlns="http://www.w3.org/2000/svg" viewBox="0 0 1440 320"><path fill="#f3f4f5" fill-opacity="1" d="M0,224L26.7,224C53.3,224,107,224,160,208C213.3,192,267,160,320,133.3C373.3,107,427,85,480,80C533.3,75,587,85,640,101.3C693.3,117,747,139,800,128C853.3,117,907,75,960,69.3C1013.3,64,1067,96,1120,122.7C1173.3,149,1227,171,1280,160C1333.3,149,1387,107,1413,85.3L1440,64L1440,320L1413.3,320C1386.7,320,1333,320,1280,320C1226.7,320,1173,320,1120,320C1066.7,320,1013,320,960,320C906.7,320,853,320,800,320C746.7,320,693,320,640,320C586.7,320,533,320,480,320C426.7,320,373,320,320,320C266.7,320,213,320,160,320C106.7,320,53,320,27,320L0,320Z"></path></svg>