<?xml version="1.0" standalone="no"?><svg xmlns="http://www.w3.org/2000/svg" viewBox="0 0 1440 320"><path fill="#f3f4f5" fill-opacity="1" d="M0,32L26.7,48C53.3,64,107,96,160,144C213.3,192,267,256,320,261.3C373.3,267,427,213,480,208C533.3,203,587,245,640,234.7C693.3,224,747,160,800,144C853.3,128,907,160,960,154.7C1013.3,149,1067,107,1120,128C1173.3,149,1227,235,1280,234.7C1333.3,235,1387,149,1413,106.7L1440,64L1440,320L1413.3,320C1386.7,320,1333,320,1280,320C1226.7,320,1173,320,1120,320C1066.7,320,1013,320,960,320C906.7,320,853,320,800,320C746.7,320,693,320,640,320C586.7,320,533,320,480,320C426.7,320,373,320,320,320C266.7,320,213,320,160,320C106.7,320,53,320,27,320L0,320Z"></path></svg>